<svg xmlns="http://www.w3.org/2000/svg" width="300" height="300" viewBox="0 0 300 300">
    <g transform="translate(0.000000,276.000000) scale(0.050000,-0.050000)"
        fill="#000000" stroke="none">
        <path
            d="M2600 5133 c0 -25 19 -33 73 -33 102 0 76 -16 -49 -32 -66 -8 -115
-4 -132 10 -20 17 -33 15 -52 -8 -14 -16 -36 -30 -50 -30 -14 0 -35 -13 -48
-28 -13 -15 -62 -37 -110 -49 -48 -13 -131 -42 -185 -66 -53 -25 -115 -46
-137 -47 -112 -8 -112 -8 -91 -49 17 -32 13 -41 -23 -52 -27 -9 -47 -5 -52 8
-14 44 -60 23 -81 -37 -12 -33 -33 -60 -48 -60 -15 0 -83 -55 -152 -123 -95
-94 -130 -118 -148 -100 -40 40 -59 25 -45 -37 13 -57 0 -71 -55 -62 -8 1 -20
-23 -27 -53 -31 -126 -126 -154 -112 -33 7 56 2 71 -19 64 -35 -12 -46 -102
-18 -155 24 -44 -75 -274 -131 -307 -16 -9 -28 -28 -28 -42 0 -39 -60 -152
-81 -152 -11 0 -19 -12 -19 -26 0 -15 -18 -46 -40 -69 -45 -49 -51 -86 -18
-119 21 -21 -45 -258 -80 -286 -24 -20 -23 -65 2 -96 14 -17 16 -26 4 -19 -15
10 -21 -71 -20 -271 1 -156 -5 -299 -14 -316 -12 -24 -5 -36 25 -43 42 -12 44
-20 50 -232 1 -65 13 -95 48 -121 26 -19 44 -48 40 -63 -11 -56 120 -219 176
-219 15 0 27 -17 27 -37 0 -21 19 -61 41 -90 37 -46 38 -55 10 -65 -17 -7 -31
-20 -31 -30 0 -27 55 -22 65 6 14 44 59 -8 51 -61 -6 -44 0 -54 41 -56 47 -3
88 -42 72 -69 -5 -7 8 -18 29 -23 28 -8 35 -23 27 -63 -5 -29 -1 -52 11 -52
12 0 24 16 28 35 6 34 296 -239 296 -279 0 -9 13 -16 28 -16 16 0 56 -22 88
-50 33 -27 68 -50 78 -50 41 0 64 -46 43 -85 -20 -39 -20 -39 40 -3 61 35 62
35 111 -18 28 -30 57 -55 66 -56 9 -1 79 -4 156 -5 77 -2 151 -10 164 -19 13
-8 52 -10 87 -4 35 6 75 2 89 -10 14 -12 43 -25 63 -29 20 -4 80 -18 133 -30
111 -25 213 -22 208 7 -2 11 6 21 18 21 65 3 156 129 121 168 -33 37 -32 39
24 47 71 10 141 -10 107 -32 -33 -20 -30 -72 4 -72 61 0 51 141 -12 166 -17 7
-14 11 9 12 19 1 53 -16 75 -38 43 -43 80 -52 80 -20 0 11 36 25 80 32 45 7
86 21 92 31 6 9 28 17 49 17 22 0 55 18 74 40 18 22 40 40 49 40 8 0 47 22 87
50 41 27 83 44 94 37 12 -8 15 -3 7 10 -8 13 -5 23 7 23 11 0 21 14 21 30 0
17 18 30 40 30 23 0 40 13 40 31 0 16 14 35 30 42 17 6 30 24 30 40 0 16 8 24
19 18 42 -26 38 30 -6 81 l-47 55 -136 -133 c-75 -74 -146 -134 -157 -134 -11
0 -41 -20 -67 -44 -132 -124 -767 -173 -1012 -78 -31 12 -75 22 -97 22 -22 0
-91 23 -153 52 -354 160 -359 162 -484 229 -82 44 -232 151 -296 214 -29 28
-124 35 -124 9 0 -17 280 -300 350 -354 199 -154 338 -237 520 -310 96 -39
252 -77 410 -101 180 -27 255 -64 200 -99 -39 -25 -205 -24 -320 2 -206 46
-226 52 -420 132 -75 31 -116 8 -60 -34 38 -29 40 -36 13 -46 -17 -7 -36 -5
-42 5 -6 9 -45 35 -86 56 -269 141 -411 249 -665 504 -200 200 -345 400 -384
526 -23 76 -68 99 -89 45 -20 -53 -41 -32 -63 65 -137 606 -152 766 -94 1075
182 987 799 1610 1810 1826 375 81 554 77 960 -19 438 -103 878 -279 1020
-407 101 -91 33 -160 -88 -89 -69 41 -69 41 -91 2 -32 -60 -10 -90 108 -150
135 -68 275 -222 259 -285 -6 -24 -1 -64 12 -88 36 -66 11 -70 -91 -12 -179
100 -176 44 6 -141 260 -263 378 -555 242 -598 -47 -15 -115 60 -116 127 -1
57 -55 164 -82 164 -41 0 -41 -59 0 -190 56 -182 57 -530 2 -530 -25 0 -59 94
-48 135 30 114 -96 345 -187 345 -26 0 -62 11 -79 25 -108 85 -166 157 -185
229 -39 144 -258 301 -425 304 -61 2 -86 16 -140 82 l-67 80 -280 1 -280 1
-223 -89 c-122 -49 -250 -104 -284 -121 -33 -18 -84 -32 -113 -32 -75 0 -35
65 75 120 47 23 108 59 135 81 l50 38 -45 1 c-25 0 -61 -8 -80 -18 -19 -9 -57
-26 -85 -37 -110 -45 -492 -237 -516 -260 -15 -14 -34 -25 -43 -25 -38 0 -205
-186 -240 -268 -164 -382 -165 -851 -3 -1192 91 -193 390 -560 455 -560 15 0
27 -9 27 -20 0 -11 11 -20 25 -20 14 0 57 -21 95 -46 392 -260 1282 -305 1480
-76 6 7 24 21 42 32 18 11 70 49 116 84 47 35 95 67 108 72 71 26 -26 59 -110
37 -48 -12 -109 -16 -135 -9 -41 11 -46 7 -36 -31 9 -33 3 -43 -22 -38 -21 3
-31 -7 -28 -27 6 -34 -87 -69 -162 -61 -20 2 -68 -12 -107 -30 -55 -26 -79
-29 -107 -11 -28 18 -43 17 -63 -1 -29 -28 -65 -30 -134 -7 -29 10 -78 7 -122
-8 -68 -23 -79 -21 -118 18 -23 23 -60 43 -82 44 -22 1 -69 2 -105 3 -36 1
-70 10 -77 20 -7 10 -50 23 -96 29 -71 10 -83 18 -78 54 5 33 -5 42 -46 44
-55 2 -178 66 -178 93 0 8 -31 31 -70 49 -38 18 -70 41 -70 51 0 9 -10 11 -22
4 -16 -10 -16 -3 0 27 30 57 28 84 -8 84 -19 0 -30 19 -30 50 0 50 -45 70 -70
30 -20 -33 -50 -23 -50 18 0 21 -13 43 -30 49 -16 7 -30 29 -30 50 0 21 -13
44 -30 50 -19 7 -30 38 -30 82 0 71 1 73 100 79 62 4 16 42 -51 42 -40 0 -78
13 -88 29 -23 37 -24 525 -1 511 10 -6 17 26 16 72 0 49 10 89 27 100 15 9 27
24 28 32 0 9 12 37 26 62 21 37 21 53 1 77 -24 28 0 65 42 67 6 0 20 20 31 45
11 25 31 43 45 40 13 -3 24 6 24 20 1 19 4 19 17 -1 13 -20 32 -11 82 35 36
34 78 61 93 61 16 0 49 10 73 23 25 13 59 30 75 38 17 8 55 1 86 -15 44 -22
63 -23 85 -5 16 13 43 18 60 11 18 -6 52 2 75 18 24 17 54 30 67 30 13 0 50
10 81 23 31 13 68 26 83 29 14 3 43 20 64 39 37 33 196 46 239 19 10 -6 44 1
74 17 43 21 65 23 94 6 28 -18 39 -17 46 2 11 31 70 33 99 4 12 -12 34 -24 49
-27 70 -12 118 -37 118 -61 0 -15 32 -32 70 -40 39 -7 70 -20 70 -29 0 -9 47
-23 105 -31 133 -17 151 -34 167 -153 12 -86 19 -98 61 -98 39 0 47 -10 47
-62 0 -44 8 -59 27 -52 15 6 35 4 45 -3 33 -24 118 -130 93 -115 -16 9 -25 2
-25 -17 0 -43 57 -63 101 -35 44 28 75 -5 150 -156 30 -60 81 -134 114 -163
32 -29 57 -61 55 -70 -2 -9 5 -19 14 -22 22 -7 126 153 126 195 0 36 107 106
130 84 16 -14 6 39 -19 99 -9 23 -2 37 23 45 62 21 172 169 154 208 -23 51
-23 91 1 123 16 22 14 26 -12 16 -43 -16 -98 100 -59 124 17 10 13 27 -16 63
-23 26 -41 39 -42 28 0 -11 -12 3 -26 30 -14 28 -35 50 -48 50 -12 0 -29 7
-38 15 -8 8 1 15 19 15 31 0 32 5 3 61 -32 62 -70 63 -70 3 -1 -29 -3 -30 -20
-4 -27 41 -25 61 5 55 14 -3 28 20 32 55 7 66 39 115 64 99 9 -5 22 0 30 12 7
12 -6 27 -30 33 -26 7 -40 24 -37 44 4 17 -11 41 -32 52 -21 11 -41 37 -44 59
-3 21 -20 46 -38 56 -26 15 -27 24 -8 47 19 24 16 37 -19 69 -24 23 -44 63
-45 90 -3 46 -7 70 -18 104 -3 8 -4 22 -2 30 1 8 -10 15 -24 15 -14 0 -38 18
-54 40 -16 22 -39 40 -52 40 -13 0 -29 14 -35 30 -7 17 -26 30 -42 30 -17 0
-31 14 -31 30 0 20 -20 30 -58 30 -31 0 -68 14 -82 30 -14 17 -41 30 -62 30
-48 0 -138 42 -138 64 0 10 -9 13 -20 6 -11 -7 -20 -5 -20 4 0 9 -37 18 -83
21 -46 2 -98 18 -117 35 -18 16 -39 24 -47 17 -7 -8 -13 -5 -13 5 0 11 -16 21
-35 23 -90 8 -162 23 -238 50 -46 16 -95 23 -108 15 -13 -8 -79 2 -146 22
-144 44 -196 47 -287 14 -53 -19 -76 -19 -106 -1 -69 43 -320 57 -320 18z" />
        <path
            d="M3360 5132 c0 -35 28 -39 90 -12 32 14 33 17 7 19 -19 0 -48 6 -65
13 -21 8 -32 1 -32 -20z" />
        <path
            d="M1380 4817 c0 -10 14 -17 30 -17 17 0 30 -9 30 -19 0 -11 14 -15 30
-8 48 18 35 42 -30 51 -33 5 -60 2 -60 -7z" />
        <path d="M434 3454 c-5 -14 2 -41 16 -60 24 -33 26 -33 34 1 18 67 -26 120
-50 59z" />
        <path d="M3802 3332 c-15 -17 -16 -33 -5 -40 28 -17 86 9 78 34 -12 35 -47 38
-73 6z" />
        <path d="M4640 2575 c1 -51 37 -86 62 -61 19 19 19 31 -1 55 -31 37 -61 40
-61 6z" />
        <path d="M1888 2171 c-14 -36 8 -76 33 -60 26 16 24 89 -2 89 -11 0 -25 -13
-31 -29z" />
        <path
            d="M3600 1570 c0 -19 19 -30 49 -30 36 0 47 8 38 30 -6 17 -28 30 -49
30 -21 0 -38 -13 -38 -30z" />
        <path d="M4100 1509 c0 -19 14 -29 33 -25 51 9 57 56 9 56 -25 0 -42 -13 -42
-31z" />
        <path d="M920 1431 c0 -41 39 -60 67 -32 17 17 15 27 -7 42 -42 26 -60 23 -60
-10z" />
        <path d="M1163 1317 c4 -26 16 -45 27 -42 30 7 24 70 -7 81 -18 6 -24 -6 -20
-39z" />
        <path d="M1270 1159 c-21 -32 27 -38 92 -11 l67 28 -75 0 c-41 0 -79 -7 -84
-17z" />
        <path
            d="M1448 1125 c8 -14 6 -25 -5 -25 -10 0 -25 -15 -32 -34 -15 -39 35
-97 67 -77 27 16 13 109 -20 139 -18 16 -20 15 -10 -3z" />
    </g>
</svg>