<svg xmlns="http://www.w3.org/2000/svg" width="300" height="300">
  <g fill="#fff">
    <path
      d="M130 19.35c0 1.25.95 1.65 3.65 1.65 5.1 0 3.8.8-2.45 1.6-3.3.4-5.75.2-6.6-.5-1-.85-1.65-.75-2.6.4-.7.8-1.8 1.5-2.5 1.5s-1.75.65-2.4 1.4c-.65.75-3.1 1.85-5.5 2.45-2.4.65-6.55 2.1-9.25 3.3-2.65 1.25-5.75 2.3-6.85 2.35-5.6.4-5.6.4-4.55 2.45.85 1.6.65 2.05-1.15 2.6-1.35.45-2.35.25-2.6-.4-.7-2.2-3-1.15-4.05 1.85-.6 1.65-1.65 3-2.4 3s-4.15 2.75-7.6 6.15c-4.75 4.7-6.5 5.9-7.4 5-2-2-2.95-1.25-2.25 1.85.65 2.85 0 3.55-2.75 3.1-.4-.05-1 1.15-1.35 2.65-1.55 6.3-6.3 7.7-5.6 1.65.35-2.8.1-3.55-.95-3.2-1.75.6-2.3 5.1-.9 7.75 1.2 2.2-3.75 13.7-6.55 15.35-.8.45-1.4 1.4-1.4 2.1 0 1.95-3 7.6-4.05 7.6-.55 0-.95.6-.95 1.3 0 .75-.9 2.3-2 3.45-2.25 2.45-2.55 4.3-.9 5.95 1.05 1.05-2.25 12.9-4 14.3-1.2 1-1.15 3.25.1 4.8.7.85.8 1.3.2.95-.75-.5-1.05 3.55-1 13.55.05 7.8-.25 14.95-.7 15.8-.6 1.2-.25 1.8 1.25 2.15 2.1.6 2.2 1 2.5 11.6.05 3.25.65 4.75 2.4 6.05 1.3.95 2.2 2.4 2 3.15-.55 2.8 6 10.95 8.8 10.95.75 0 1.35.85 1.35 1.85 0 1.05.95 3.05 2.05 4.5 1.85 2.3 1.9 2.75.5 3.25-.85.35-1.55 1-1.55 1.5 0 1.35 2.75 1.1 3.25-.3.7-2.2 2.95.4 2.55 3.05-.3 2.2 0 2.7 2.05 2.8 2.35.15 4.4 2.1 3.6 3.45-.25.35.4.9 1.45 1.15 1.4.4 1.75 1.15 1.35 3.15-.25 1.45-.05 2.6.55 2.6.6 0 1.2-.8 1.4-1.75.3-1.7 14.8 11.95 14.8 13.95 0 .45.65.8 1.4.8.8 0 2.8 1.1 4.4 2.5 1.65 1.35 3.4 2.5 3.9 2.5 2.05 0 3.2 2.3 2.15 4.25-1 1.95-1 1.95 2 .15 3.05-1.75 3.1-1.75 5.55.9 1.4 1.5 2.85 2.75 3.3 2.8.45.05 3.95.2 7.8.25 3.85.1 7.55.5 8.2.95.65.4 2.6.5 4.35.2 1.75-.3 3.75-.1 4.45.5.7.6 2.15 1.25 3.15 1.45 1 .2 4 .9 6.65 1.5 5.55 1.25 10.65 1.1 10.4-.35-.1-.55.3-1.05.9-1.05 3.25-.15 7.8-6.45 6.05-8.4-1.65-1.85-1.6-1.95 1.2-2.35 3.55-.5 7.05.5 5.35 1.6-1.65 1-1.5 3.6.2 3.6 3.05 0 2.55-7.05-.6-8.3-.85-.35-.7-.55.45-.6.95-.05 2.65.8 3.75 1.9 2.15 2.15 4 2.6 4 1 0-.55 1.8-1.25 4-1.6 2.25-.35 4.3-1.05 4.6-1.55.3-.45 1.4-.85 2.45-.85 1.1 0 2.75-.9 3.7-2 .9-1.1 2-2 2.45-2 .4 0 2.35-1.1 4.35-2.5 2.05-1.35 4.15-2.2 4.7-1.85.6.4.75.15.35-.5s-.25-1.15.35-1.15c.55 0 1.05-.7 1.05-1.5 0-.85.9-1.5 2-1.5 1.15 0 2-.65 2-1.55 0-.8.7-1.75 1.5-2.1.85-.3 1.5-1.2 1.5-2s.4-1.2.95-.9c2.1 1.3 1.9-1.5-.3-4.05l-2.35-2.75-6.8 6.65c-3.75 3.7-7.3 6.7-7.85 6.7-.55 0-2.05 1-3.35 2.2-6.6 6.2-38.35 8.65-50.6 3.9-1.55-.6-3.75-1.1-4.85-1.1-1.1 0-4.55-1.15-7.65-2.6-17.7-8-17.95-8.1-24.2-11.45-4.1-2.2-11.6-7.55-14.8-10.7-1.45-1.4-6.2-1.75-6.2-.45 0 .85 14 15 17.5 17.7 9.95 7.7 16.9 11.85 26 15.5 4.8 1.95 12.6 3.85 20.5 5.05 9 1.35 12.75 3.2 10 4.95-1.95 1.25-10.25 1.2-16-.1-10.3-2.3-11.3-2.6-21-6.6-3.75-1.55-5.8-.4-3 1.7 1.9 1.45 2 1.8.65 2.3-.85.35-1.8.25-2.1-.25-.3-.45-2.25-1.75-4.3-2.8C91.8 225.2 84.7 219.8 72 207.05c-10-10-17.25-20-19.2-26.3-1.15-3.8-3.4-4.95-4.45-2.25-1 2.65-2.05 1.6-3.15-3.25-6.85-30.3-7.6-38.3-4.7-53.75C49.6 72.15 80.45 41 131 30.2c18.75-4.05 27.7-3.85 48 .95 21.9 5.15 43.9 13.95 51 20.35 5.05 4.55 1.65 8-4.4 4.45-3.45-2.05-3.45-2.05-4.55-.1-1.6 3-.5 4.5 5.4 7.5 6.75 3.4 13.75 11.1 12.95 14.25-.3 1.2-.05 3.2.6 4.4 1.8 3.3.55 3.5-4.55.6-8.95-5-8.8-2.2.3 7.05 13 13.15 18.9 27.75 12.1 29.9-2.35.75-5.75-3-5.8-6.35-.05-2.85-2.75-8.2-4.1-8.2-2.05 0-2.05 2.95 0 9.5 2.8 9.1 2.85 26.5.1 26.5-1.25 0-2.95-4.7-2.4-6.75 1.5-5.7-4.8-17.25-9.35-17.25-1.3 0-3.1-.55-3.95-1.25-5.4-4.25-8.3-7.85-9.25-11.45-1.95-7.2-12.9-15.05-21.25-15.2-3.05-.1-4.3-.8-7-4.1l-3.35-4-14-.05-14-.05-11.15 4.45c-6.1 2.45-12.5 5.2-14.2 6.05-1.65.9-4.2 1.6-5.65 1.6-3.75 0-1.75-3.25 3.75-6 2.35-1.15 5.4-2.95 6.75-4.05l2.5-1.9-2.25-.05c-1.25 0-3.05.4-4 .9-.95.45-2.85 1.3-4.25 1.85-5.5 2.25-24.6 11.85-25.8 13-.75.7-1.7 1.25-2.15 1.25-1.9 0-10.25 9.3-12 13.4-8.2 19.1-8.25 42.55-.15 59.6 4.55 9.65 19.5 28 22.75 28 .75 0 1.35.45 1.35 1s.55 1 1.25 1 2.85 1.05 4.75 2.3c19.6 13 64.1 15.25 74 3.8.3-.35 1.2-1.05 2.1-1.6.9-.55 3.5-2.45 5.8-4.2 2.35-1.75 4.75-3.35 5.4-3.6 3.55-1.3-1.3-2.95-5.5-1.85-2.4.6-5.45.8-6.75.45-2.05-.55-2.3-.35-1.8 1.55.45 1.65.15 2.15-1.1 1.9-1.05-.15-1.55.35-1.4 1.35.3 1.7-4.35 3.45-8.1 3.05-1-.1-3.4.6-5.35 1.5-2.75 1.3-3.95 1.45-5.35.55-1.4-.9-2.15-.85-3.15.05-1.45 1.4-3.25 1.5-6.7.35-1.45-.5-3.9-.35-6.1.4-3.4 1.15-3.95 1.05-5.9-.9-1.15-1.15-3-2.15-4.1-2.2-1.1-.05-3.45-.1-5.25-.15-1.8-.05-3.5-.5-3.85-1-.35-.5-2.5-1.15-4.8-1.45-3.55-.5-4.15-.9-3.9-2.7.25-1.65-.25-2.1-2.3-2.2-2.75-.1-8.9-3.3-8.9-4.65 0-.4-1.55-1.55-3.5-2.45-1.9-.9-3.5-2.05-3.5-2.55 0-.45-.5-.55-1.1-.2-.8.5-.8.15 0-1.35 1.5-2.85 1.4-4.2-.4-4.2-.95 0-1.5-.95-1.5-2.5 0-2.5-2.25-3.5-3.5-1.5-1 1.65-2.5 1.15-2.5-.9 0-1.05-.65-2.15-1.5-2.45-.8-.35-1.5-1.45-1.5-2.5s-.65-2.2-1.5-2.5c-.95-.35-1.5-1.9-1.5-4.1 0-3.55.05-3.65 5-3.95 3.1-.2.8-2.1-2.55-2.1-2 0-3.9-.65-4.4-1.45-1.15-1.85-1.2-26.25-.05-25.55.5.3.85-1.3.8-3.6 0-2.45.5-4.45 1.35-5 .75-.45 1.35-1.2 1.4-1.6 0-.45.6-1.85 1.3-3.1 1.05-1.85 1.05-2.65.05-3.85-1.2-1.4 0-3.25 2.1-3.35.3 0 1-1 1.55-2.25s1.55-2.15 2.25-2c.65.15 1.2-.3 1.2-1 .05-.95.2-.95.85.05.65 1 1.6.55 4.1-1.75 1.8-1.7 3.9-3.05 4.65-3.05.8 0 2.45-.5 3.65-1.15 1.25-.65 2.95-1.5 3.75-1.9.85-.4 2.75-.05 4.3.75 2.2 1.1 3.15 1.15 4.25.25.8-.65 2.15-.9 3-.55.9.3 2.6-.1 3.75-.9 1.2-.85 2.7-1.5 3.35-1.5.65 0 2.5-.5 4.05-1.15 1.55-.65 3.4-1.3 4.15-1.45.7-.15 2.15-1 3.2-1.95 1.85-1.65 9.8-2.3 11.95-.95.5.3 2.2-.05 3.7-.85 2.15-1.05 3.25-1.15 4.7-.3 1.4.9 1.95.85 2.3-.1.55-1.55 3.5-1.65 4.95-.2.6.6 1.7 1.2 2.45 1.35 3.5.6 5.9 1.85 5.9 3.05 0 .75 1.6 1.6 3.5 2 1.95.35 3.5 1 3.5 1.45 0 .45 2.35 1.15 5.25 1.55 6.65.85 7.55 1.7 8.35 7.65.6 4.3.95 4.9 3.05 4.9 1.95 0 2.35.5 2.35 3.1 0 2.2.4 2.95 1.35 2.6.75-.3 1.75-.2 2.25.15 1.65 1.2 5.9 6.5 4.65 5.75-.8-.45-1.25-.1-1.25.85 0 2.15 2.85 3.15 5.05 1.75 2.2-1.4 3.75.25 7.5 7.8 1.5 3 4.05 6.7 5.7 8.15 1.6 1.45 2.85 3.05 2.75 3.5-.1.45.25.95.7 1.1 1.1.35 6.3-7.65 6.3-9.75 0-1.8 5.35-5.3 6.5-4.2.8.7.3-1.95-.95-4.95-.45-1.15-.1-1.85 1.15-2.25 3.1-1.05 8.6-8.45 7.7-10.4-1.15-2.55-1.15-4.55.05-6.15.8-1.1.7-1.3-.6-.8-2.15.8-4.9-5-2.95-6.2.85-.5.65-1.35-.8-3.15-1.15-1.3-2.05-1.95-2.1-1.4 0 .55-.6-.15-1.3-1.5-.7-1.4-1.75-2.5-2.4-2.5-.6 0-1.45-.35-1.9-.75-.4-.4.05-.75.95-.75 1.55 0 1.6-.25.15-3.05-1.6-3.1-3.5-3.15-3.5-.15-.05 1.45-.15 1.5-1 .2-1.35-2.05-1.25-3.05.25-2.75.7.15 1.4-1 1.6-2.75.35-3.3 1.95-5.75 3.2-4.95.45.25 1.1 0 1.5-.6.35-.6-.3-1.35-1.5-1.65-1.3-.35-2-1.2-1.85-2.2.2-.85-.55-2.05-1.6-2.6-1.05-.55-2.05-1.85-2.2-2.95-.15-1.05-1-2.3-1.9-2.8-1.3-.75-1.35-1.2-.4-2.35.95-1.2.8-1.85-.95-3.45-1.2-1.15-2.2-3.15-2.25-4.5-.15-2.3-.35-3.5-.9-5.2-.15-.4-.2-1.1-.1-1.5.05-.4-.5-.75-1.2-.75s-1.9-.9-2.7-2c-.8-1.1-1.95-2-2.6-2-.65 0-1.45-.7-1.75-1.5-.35-.85-1.3-1.5-2.1-1.5-.85 0-1.55-.7-1.55-1.5 0-1-1-1.5-2.9-1.5-1.55 0-3.4-.7-4.1-1.5-.7-.85-2.05-1.5-3.1-1.5-2.4 0-6.9-2.1-6.9-3.2 0-.5-.45-.65-1-.3-.55.35-1 .25-1-.2s-1.85-.9-4.15-1.05c-2.3-.1-4.9-.9-5.85-1.75-.9-.8-1.95-1.2-2.35-.85-.35.4-.65.25-.65-.25 0-.55-.8-1.05-1.75-1.15-4.5-.4-8.1-1.15-11.9-2.5-2.3-.8-4.75-1.15-5.4-.75-.65.4-3.95-.1-7.3-1.1-7.2-2.2-9.8-2.35-14.35-.7-2.65.95-3.8.95-5.3.05-3.45-2.15-16-2.85-16-.9z" />
    <path
      d="M168 19.4c0 1.75 1.4 1.95 4.5.6 1.6-.7 1.65-.85.35-.95-.95 0-2.4-.3-3.25-.65-1.05-.4-1.6-.05-1.6 1zM69 35.15c0 .5.7.85 1.5.85.85 0 1.5.45 1.5.95 0 .55.7.75 1.5.4 2.4-.9 1.75-2.1-1.5-2.55-1.65-.25-3-.1-3 .35zM21.7 103.3c-.25.7.1 2.05.8 3 1.2 1.65 1.3 1.65 1.7-.05.9-3.35-1.3-6-2.5-2.95zm168.4 6.1c-.75.85-.8 1.65-.25 2 1.4.85 4.3-.45 3.9-1.7-.6-1.75-2.35-1.9-3.65-.3zm41.9 37.85c.05 2.55 1.85 4.3 3.1 3.05.95-.95.95-1.55-.05-2.75-1.55-1.85-3.05-2-3.05-.3zm-137.6 20.2c-.7 1.8.4 3.8 1.65 3 1.3-.8 1.2-4.45-.1-4.45-.55 0-1.25.65-1.55 1.45zM180 197.5c0 .95.95 1.5 2.45 1.5 1.8 0 2.35-.4 1.9-1.5-.3-.85-1.4-1.5-2.45-1.5-1.05 0-1.9.65-1.9 1.5zm25 3.05c0 .95.7 1.45 1.65 1.25 2.55-.45 2.85-2.8.45-2.8-1.25 0-2.1.65-2.1 1.55zm-159 3.9c0 2.05 1.95 3 3.35 1.6.85-.85.75-1.35-.35-2.1-2.1-1.3-3-1.15-3 .5zm12.15 5.7c.2 1.3.8 2.25 1.35 2.1 1.5-.35 1.2-3.5-.35-4.05-.9-.3-1.2.3-1 1.95zm5.35 7.9c-1.05 1.6 1.35 1.9 4.6.55l3.35-1.4H67.7c-2.05 0-3.95.35-4.2.85zm8.9 1.7c.4.7.3 1.25-.25 1.25-.5 0-1.25.75-1.6 1.7-.75 1.95 1.75 4.85 3.35 3.85 1.35-.8.65-5.45-1-6.95-.9-.8-1-.75-.5.15z" />
  </g>
</svg>